<?xml version="1.0" encoding="utf-8"?>
<!-- Generator: Adobe Illustrator 18.1.1, SVG Export Plug-In . SVG Version: 6.00 Build 0)  -->
<svg version="1.1" id="Layer_1" xmlns="http://www.w3.org/2000/svg" xmlns:xlink="http://www.w3.org/1999/xlink" x="0px" y="0px"
	 viewBox="0 0 144 32" enable-background="new 0 0 144 32" xml:space="preserve">
<path fill="#FFFFFF" d="M14.3,17v9.1H10V5.8h4.3v7.7h7.9V5.8h4.3v20.4h-4.3V17H14.3z"/>
<path fill="#FFFFFF" d="M42.5,23.2c0,1.8,0.4,2.2,0.9,2.4v0.6h-4.3c-0.2-0.7-0.3-0.9-0.4-1.8c-0.9,0.9-2.2,2.2-4.9,2.2
	c-2.3,0-4.6-1.3-4.6-4.4c0-3,1.9-4.5,4.4-4.8l3.6-0.5c0.6-0.1,1.4-0.3,1.4-1.2c0-1.7-1.6-1.8-2.6-1.8c-2,0-2.3,1.2-2.4,2.1h-3.8
	c0.5-4.6,3.7-5.3,6.8-5.3c2.1,0,6,0.7,6,4.4V23.2z M38.7,18.8c-0.4,0.3-1,0.6-2.7,0.8c-1.5,0.3-2.7,0.6-2.7,2.3
	c0,1.4,1.1,1.8,1.8,1.8c1.8,0,3.5-1.1,3.5-3V18.8z"/>
<path fill="#FFFFFF" d="M54.6,15.7c-0.2-1-0.5-2-2.7-2c-2.2,0-2.4,0.8-2.4,1.5c0,2.4,9.4,0.7,9.4,6.2c0,4.4-4.3,5.2-6.6,5.2
	c-3.4,0-7.1-1.2-7.3-5.2h4.1c0,1.3,0.8,2.2,3.3,2.2c2,0,2.5-1,2.5-1.6c0-2.5-9.4-0.6-9.4-6.3c0-2.2,1.4-5,6.1-5c3,0,6.5,0.7,6.8,5
	H54.6z"/>
<path fill="#FFFFFF" d="M75.5,26.2h-4V17c0-1.1-0.1-3-2.6-3c-1.8,0-3.1,1.2-3.1,3.5v8.7h-4V5.8h4V13h0.1c0.5-1.2,2.2-2.4,4.4-2.4
	c2.9,0,5.2,1.7,5.2,5V26.2z"/>
<path fill="#FFFFFF" d="M92.2,21.8c-1,3.6-4.1,4.8-6.6,4.8c-4.3,0-7.5-2-7.5-8.3c0-1.8,0.6-7.6,7.2-7.6c3,0,7.1,1.4,7.1,8.3v0.7H82
	c0.1,1.1,0.3,3.7,3.5,3.7c1.1,0,2.2-0.6,2.6-1.6H92.2z M88.2,17.1c-0.2-2.4-1.8-3.2-3.1-3.2c-1.9,0-2.9,1.2-3.1,3.2H88.2z"/>
<path fill="#FFFFFF" d="M108.8,26.2h-3.9v-1.9h-0.1c-1,1.7-2.7,2.3-4.4,2.3c-4.5,0-6.4-4-6.4-8.1c0-5.2,3-7.8,6.3-7.8
	c2.6,0,3.7,1.4,4.4,2.4h0.1V5.8h4V26.2z M101.4,23.3c2.5,0,3.5-2.1,3.5-4.3c0-2.4-0.7-4.8-3.4-4.8c-2.5,0-3.4,2.2-3.4,4.6
	C98.2,20.5,98.9,23.3,101.4,23.3z"/>
<path fill="#F27F21" d="M133.8,26.2h-4V17c0-1.1-0.1-3-2.6-3c-1.8,0-3.1,1.2-3.1,3.5v8.7h-4V11.1h3.8v2.2h0.1
	c0.5-0.9,1.7-2.6,4.5-2.6c3,0,5.2,1.7,5.2,5V26.2z"/>
<circle fill="#F27F21" cx="114.4" cy="7.6" r="1.8"/>
<path fill="#F27F21" d="M117.1,11.1l-0.8-0.4c-0.1-0.1-0.2-0.1-0.3,0c0,0,0,0,0,0c0.1,0.2,0.2,0.5,0.2,0.8c0,0.4-0.1,0.8-0.4,1.1
	c-0.1,0.2-0.3,0.4-0.5,0.5c-0.3,0.2-0.6,0.3-0.9,0.3c-0.3,0-0.6-0.1-0.9-0.3c-0.1,0-0.2-0.1-0.3-0.2c-0.1-0.1-0.1-0.2-0.2-0.3
	c-0.2-0.3-0.4-0.7-0.4-1.1c0-0.3,0.1-0.5,0.2-0.8c0,0,0,0,0,0c-0.1-0.1-0.2,0-0.3,0l-0.8,0.4c-0.3,0.1-0.6,0.6-0.6,0.9l0,2
	c0,0.3,0.3,0.7,0.6,0.9l1.3,0.6c0,0.1-0.1,0.2-0.1,0.3l0,6.8c0,0-0.1,0.1-0.1,0.1c-0.9,0.9-0.9,2.3,0,3.2c0.9,0.9,2.3,0.9,3.2,0
	c0.9-0.9,0.9-2.3,0-3.2h0c0,0-0.1-0.1-0.1-0.1v-6.8c0-0.1,0-0.2-0.1-0.3l1.3-0.6c0.3-0.1,0.6-0.6,0.6-0.9l0-2
	C117.7,11.7,117.4,11.3,117.1,11.1z M115.2,25.2c-0.5,0.5-1.2,0.5-1.7,0c-0.5-0.5-0.5-1.2,0-1.7c0.2-0.2,0.5-0.3,0.8-0.3
	c0.3,0,0.6,0.1,0.8,0.3C115.7,24,115.7,24.7,115.2,25.2z"/>
</svg>
